<?xml version="1.0" encoding="UTF-8"?>
<svg width="300px" height="300px" viewBox="0 0 300 300" version="1.1" xmlns="http://www.w3.org/2000/svg">
    <title>Molecule</title>
    <g stroke="none" stroke-width="1" fill="none" fill-rule="evenodd">
        <g transform="translate(20, 20)">
            <!-- Atoms -->
            <circle cx="130" cy="130" r="20" fill="#1976d2" />
            <circle cx="50" cy="50" r="15" fill="#4caf50" />
            <circle cx="210" cy="50" r="15" fill="#4caf50" />
            <circle cx="50" cy="210" r="15" fill="#4caf50" />
            <circle cx="210" cy="210" r="15" fill="#4caf50" />
            <circle cx="130" cy="30" r="12" fill="#ff9800" />
            <circle cx="230" cy="130" r="12" fill="#ff9800" />
            <circle cx="130" cy="230" r="12" fill="#ff9800" />
            <circle cx="30" cy="130" r="12" fill="#ff9800" />
            
            <!-- Bonds -->
            <line x1="130" y1="130" x2="50" y2="50" stroke="#1976d2" stroke-width="3" />
            <line x1="130" y1="130" x2="210" y2="50" stroke="#1976d2" stroke-width="3" />
            <line x1="130" y1="130" x2="50" y2="210" stroke="#1976d2" stroke-width="3" />
            <line x1="130" y1="130" x2="210" y2="210" stroke="#1976d2" stroke-width="3" />
            <line x1="130" y1="130" x2="130" y2="30" stroke="#1976d2" stroke-width="3" />
            <line x1="130" y1="130" x2="230" y2="130" stroke="#1976d2" stroke-width="3" />
            <line x1="130" y1="130" x2="130" y2="230" stroke="#1976d2" stroke-width="3" />
            <line x1="130" y1="130" x2="30" y2="130" stroke="#1976d2" stroke-width="3" />
            
            <!-- Electron Orbits (Decorative) -->
            <ellipse cx="130" cy="130" rx="100" ry="30" stroke="#1976d2" stroke-width="1" stroke-dasharray="5,5" transform="rotate(0, 130, 130)" />
            <ellipse cx="130" cy="130" rx="100" ry="30" stroke="#1976d2" stroke-width="1" stroke-dasharray="5,5" transform="rotate(45, 130, 130)" />
            <ellipse cx="130" cy="130" rx="100" ry="30" stroke="#1976d2" stroke-width="1" stroke-dasharray="5,5" transform="rotate(90, 130, 130)" />
            <ellipse cx="130" cy="130" rx="100" ry="30" stroke="#1976d2" stroke-width="1" stroke-dasharray="5,5" transform="rotate(135, 130, 130)" />
        </g>
    </g>
</svg> 